<svg baseProfile="full" xmlns="http://www.w3.org/2000/svg" width="360" height="250"><defs><style>circle,path{stroke-linecap:round;stroke-linejoin:round}</style></defs><path fill="none" stroke="#000" stroke-width="3" d="M139.5 110.5L180 70l30 30"/><path fill="#FFF" stroke="#000" stroke-width="3" d="M97 139l35-36 15 15-36 35-14-14" stroke-linecap="square"/><path fill="none" stroke="#000" stroke-width="3" d="M90 160l14.14-14.14m35.36-35.36l14.14-14.14"/><path fill="#FFF" stroke="#000" stroke-width="3" d="M231 107l36 35-15 15-35-36 14-14" stroke-linecap="square"/><path fill="none" stroke="#000" stroke-width="3" d="M210 100l14.14 14.14m35.36 35.36l14.14 14.14M90 160l-30 30m213.64-26.36L300 190H60"/><path fill="#FFF" stroke="#000" stroke-width="3" d="M160 180h50v20h-50v-20" stroke-linecap="square"/><path fill="none" stroke="#000" stroke-width="3" d="M140 190h20m50 0h20"/><circle cx="180" cy="70" r="6" fill="red" stroke-width="2"/><circle cx="60" cy="190" r="6" fill="#FF0" stroke-width="2"/><circle cx="300" cy="190" r="6" fill="#0F0" stroke-width="2"/><path fill="none" stroke="red" stroke-width="3" d="M180 70V40"/><path fill="none" stroke="#FF0" stroke-width="3" d="M60 190l-20 20"/><path fill="none" stroke="#0F0" stroke-width="3" d="M300 190l20 20"/></svg>