<?xml version="1.0" encoding="utf-8"?>
<!-- Created with "sPlan" (http://www.abacom-online.de) -->
<svg version="1.1" baseProfile="full"
xmlns="http://www.w3.org/2000/svg"
width="266" height="260">
<title>star</title>
<defs>
<style type="text/css">
<![CDATA[
polyline {stroke-linecap:round; stroke-linejoin:round}
polygon {stroke-linecap:round; stroke-linejoin:round}
path {stroke-linecap:round; stroke-linejoin:round}
circle {stroke-linecap:round; stroke-linejoin:round}
]]>
</style>
</defs>
<path fill="rgb(255,255,255)" stroke="rgb(0,0,0)" stroke-width="3" style="stroke-linecap:square; stroke-linejoin:miter" d=" M 96 40 L 146 40 146 60 96 60 96 40" />
<polyline points="76.00 50.00 96.00 50.00" fill="none" stroke="rgb(0,0,0)" stroke-width="3" />
<polyline points="146.00 50.00 166.00 50.00" fill="none" stroke="rgb(0,0,0)" stroke-width="3" />
<path fill="rgb(255,255,255)" stroke="rgb(0,0,0)" stroke-width="3" style="stroke-linecap:square; stroke-linejoin:miter" d=" M 96 200 L 146 200 146 220 96 220 96 200" />
<polyline points="76.00 210.00 96.00 210.00" fill="none" stroke="rgb(0,0,0)" stroke-width="3" />
<polyline points="146.00 210.00 166.00 210.00" fill="none" stroke="rgb(0,0,0)" stroke-width="3" />
<path fill="rgb(255,255,255)" stroke="rgb(0,0,0)" stroke-width="3" style="stroke-linecap:square; stroke-linejoin:miter" d=" M 96 120 L 146 120 146 140 96 140 96 120" />
<polyline points="76.00 130.00 96.00 130.00" fill="none" stroke="rgb(0,0,0)" stroke-width="3" />
<polyline points="146.00 130.00 166.00 130.00" fill="none" stroke="rgb(0,0,0)" stroke-width="3" />
<polyline points="76.00 210.00 46.00 210.00 46.00 50.00 76.00 50.00" fill="none" stroke="rgb(0,0,0)" stroke-width="3" />
<polyline points="76.00 130.00 46.00 130.00" fill="none" stroke="rgb(0,0,0)" stroke-width="3" />
<polyline points="166.00 50.00 226.00 50.00" fill="none" stroke="rgb(255,0,0)" stroke-width="3" />
<polyline points="166.00 130.00 226.00 130.00" fill="none" stroke="rgb(255,255,0)" stroke-width="3" />
<polyline points="166.00 210.00 226.00 210.00" fill="none" stroke="rgb(0,255,0)" stroke-width="3" />
<circle cx="46" cy="130" r="6" fill="rgb(0,0,0)" stroke="none" stroke-width="2" />
</svg>
